<?xml version="1.0" encoding="UTF-8"?>
<svg width="512" height="512" viewBox="0 0 512 512" fill="none" xmlns="http://www.w3.org/2000/svg">
  <circle cx="256" cy="256" r="240" stroke="#000000" stroke-width="32"/>
  <path d="M256 16C123.45 16 16 123.45 16 256s107.45 240 240 240 240-107.45 240-240S388.55 16 256 16z" fill="#000000" fill-opacity="0.1"/>
  <path d="M256 16v480M16 256h480" stroke="#000000" stroke-width="32"/>
  <path d="M256 16c132.55 0 240 107.45 240 240s-107.45 240-240 240S16 388.55 16 256 123.45 16 256 16z" stroke="#000000" stroke-width="32"/>
  <path d="M256 16c132.55 0 240 107.45 240 240s-107.45 240-240 240S16 388.55 16 256 123.45 16 256 16z" stroke="#000000" stroke-width="32" transform="rotate(45 256 256)"/>
</svg> 